<svg xmlns="http://www.w3.org/2000/svg" xmlns:xlink="http://www.w3.org/1999/xlink" width="1080" zoomAndPan="magnify" viewBox="0 0 810 809.999993" height="1080" preserveAspectRatio="xMidYMid meet" version="1.0"><defs><clipPath id="6c0dabf374"><path d="M 31.359375 81 L 772 81 L 772 654.75 L 31.359375 654.75 Z M 31.359375 81 " clip-rule="nonzero"/></clipPath></defs><path fill="#e67d22" d="M 228.183594 240.285156 L 197.480469 250.597656 C 197.21875 250.683594 196.941406 250.546875 196.855469 250.285156 L 193.617188 245.179688 L 188.03125 247.589844 L 188.023438 247.59375 L 187.519531 249.113281 C 187.625 249.324219 187.570312 249.601562 187.378906 249.757812 L 166.085938 266.949219 C 164.800781 268.027344 163.183594 268.617188 161.5 268.617188 L 153.996094 268.617188 C 152 268.617188 150.089844 267.785156 148.753906 266.308594 L 138.75 256.894531 L 137.71875 268.007812 L 142.570312 306.257812 C 142.621094 306.710938 142.292969 307.09375 141.859375 307.128906 L 136.777344 307.128906 L 151.859375 416.023438 C 151.878906 416.179688 151.753906 416.320312 151.597656 416.335938 L 150.105469 416.441406 L 150.175781 416.542969 C 150.609375 417.136719 151.164062 417.621094 151.824219 417.933594 L 161.003906 422.714844 C 161.160156 422.785156 161.261719 422.941406 161.261719 423.117188 L 160.914062 426.800781 C 160.914062 427.058594 160.707031 427.25 160.464844 427.25 L 150.089844 427.042969 C 148.910156 427.042969 147.746094 426.902344 146.617188 426.609375 L 141.980469 425.410156 L 141.980469 427.042969 L 136.941406 427.320312 C 136.871094 427.269531 136.820312 427.214844 136.75 427.164062 C 136.421875 423.917969 138.117188 420.160156 138.308594 416.789062 L 137.421875 416.859375 C 137.285156 416.875 137.144531 416.773438 137.128906 416.632812 L 129.28125 360.941406 C 129.039062 359.03125 128.675781 357.140625 128.171875 355.28125 L 117.25 315.296875 C 117.195312 315.039062 116.9375 314.882812 116.691406 314.949219 L 110.839844 315.265625 C 110.683594 315.300781 110.5625 315.40625 110.507812 315.5625 L 92.832031 357.105469 C 92.332031 358.410156 91.863281 359.730469 91.445312 361.046875 L 76.375 417.3125 C 76.320312 417.484375 76.128906 417.605469 75.9375 417.574219 L 74.550781 417.347656 C 74.792969 420.941406 74.691406 424.238281 74.257812 427.453125 L 69.71875 427.679688 L 69.71875 426.046875 L 62.75 426.988281 C 61.777344 427.199219 60.769531 427.300781 59.78125 427.300781 L 48.019531 427.472656 C 47.777344 427.472656 47.570312 427.28125 47.570312 427.019531 L 47.886719 423.277344 C 47.886719 423.101562 47.988281 422.929688 48.164062 422.859375 L 59.539062 417.417969 C 60.027344 417.210938 60.441406 416.898438 60.808594 416.515625 L 61.832031 415.402344 L 60.269531 415.144531 C 60.027344 415.109375 59.871094 414.882812 59.9375 414.640625 L 89.773438 310.03125 L 85.449219 310.257812 C 85 310.292969 84.632812 309.925781 84.632812 309.476562 L 85.496094 281.425781 L 72.433594 287.429688 C 69.742188 288.542969 66.632812 287.570312 65.035156 285.121094 L 60.941406 280.210938 C 59.8125 278.476562 59.636719 276.285156 60.488281 274.410156 L 75.929688 242.398438 C 78.640625 236.21875 81.34375 231.753906 87.542969 229.113281 L 97.976562 222.792969 L 98.617188 216.871094 L 98.253906 216.628906 C 93.0625 216.941406 91.082031 213.34375 91.6875 210.425781 C 88.777344 206.882812 84.9375 199.929688 91.605469 197.097656 C 92.125 196.871094 92.5625 196.507812 92.839844 196.019531 C 101.167969 181.4375 119.472656 183.515625 115.898438 196.550781 L 115.882812 196.566406 C 116.890625 200.058594 117.652344 203.808594 118.191406 207.804688 C 118.3125 208.65625 117.664062 209.359375 117.769531 210.246094 C 117.925781 211.6875 118.082031 213.164062 118.203125 214.640625 C 118.273438 215.523438 118.519531 216.558594 117.722656 216.886719 L 118.695312 220.148438 L 118.695312 220.152344 L 129.199219 223.226562 C 135.972656 224.25 142.070312 227.863281 146.238281 233.28125 L 158.296875 251.140625 C 158.382812 251.246094 158.523438 251.261719 158.644531 251.191406 L 180.460938 234.921875 C 180.722656 234.75 181.085938 234.835938 181.226562 235.128906 L 182.097656 235.746094 L 182.101562 235.75 L 188.457031 230.261719 L 181.753906 200.394531 C 181.664062 200.117188 181.804688 199.839844 182.066406 199.753906 L 212.582031 190.519531 C 212.84375 190.433594 213.121094 190.570312 213.207031 190.832031 L 228.511719 239.660156 C 228.597656 239.921875 228.460938 240.199219 228.183594 240.285156 Z M 317.464844 288.460938 C 318.125 290.632812 316.929688 291.851562 315.488281 293.605469 L 311.808594 298.070312 C 309.84375 300.449219 307.453125 301.414062 304.675781 300.078125 L 304.136719 299.851562 L 310.335938 328.214844 C 310.386719 328.460938 310.214844 328.703125 309.953125 328.71875 L 305.488281 329.527344 L 307.25 419.578125 C 307.25 419.699219 307.148438 419.800781 307.027344 419.800781 L 305.476562 421.125 L 305.378906 421.953125 L 304.925781 425.753906 C 304.871094 426.21875 304.914062 426.691406 305.050781 427.144531 L 305.375 428.191406 C 305.410156 428.453125 305.082031 429.214844 305.132812 429.472656 C 305.914062 433.15625 305.183594 435.472656 304.734375 439.207031 C 304.734375 439.398438 304.578125 439.570312 304.367188 439.570312 L 301.621094 439.355469 C 301.414062 439.355469 301.257812 439.199219 301.257812 438.988281 L 301.101562 434.304688 L 295.546875 438.835938 C 295.355469 439.078125 295.0625 439.234375 294.730469 439.234375 L 281.910156 439.617188 C 281.476562 439.617188 281.128906 439.269531 281.128906 438.835938 L 281.339844 436.921875 C 281.339844 436.644531 281.476562 436.398438 281.703125 436.242188 L 290.230469 430.804688 C 290.28125 430.769531 290.265625 430.226562 290.316406 430.171875 C 290.597656 429.972656 290.949219 429.589844 291.277344 429.183594 C 291.375 429.0625 291.472656 428.941406 291.5625 428.820312 C 291.644531 428.71875 291.707031 428.605469 291.773438 428.496094 C 292.140625 427.902344 292.347656 427.214844 292.347656 426.507812 L 292.371094 423.246094 L 292.378906 421.125 L 290.882812 419.859375 C 290.761719 419.859375 290.675781 419.773438 290.660156 419.652344 L 286.714844 334.03125 C 286.699219 333.804688 286.527344 333.613281 286.28125 333.5625 L 281.132812 332.78125 C 280.855469 332.726562 280.59375 332.902344 280.523438 333.179688 L 270.777344 372.234375 L 261.660156 420.0625 C 261.625 420.167969 261.539062 420.234375 261.453125 420.234375 L 259.847656 421.121094 L 259.84375 421.125 L 258.136719 427.863281 C 258.015625 428.4375 257.945312 428.992188 257.925781 429.582031 C 257.925781 429.945312 257.566406 430.746094 257.601562 431.109375 C 257.773438 432.585938 257.4375 433.4375 257.402344 435 C 257.386719 435.226562 257.371094 435.46875 257.371094 435.695312 C 257.316406 437.050781 257.488281 438.324219 257.316406 439.730469 C 257.296875 439.886719 257.140625 440.023438 256.984375 440.023438 L 253 440.03125 C 252.824219 440.03125 252.667969 439.875 252.667969 439.699219 L 252.410156 434.246094 L 247.90625 439.441406 C 247.800781 439.582031 247.613281 439.683594 247.4375 439.683594 L 247.414062 439.683594 L 233.144531 439.972656 C 232.8125 439.972656 232.554688 439.714844 232.554688 439.382812 L 232.664062 437.308594 C 232.664062 437.203125 232.699219 437.097656 232.75 436.996094 C 232.75 436.996094 232.765625 436.996094 232.765625 436.976562 C 232.820312 436.90625 232.871094 436.839844 232.957031 436.785156 L 232.976562 436.769531 L 240.75 432.3125 C 241.53125 431.894531 242.367188 430.796875 243.007812 430.226562 C 244.625 428.765625 245.789062 426.890625 246.359375 424.753906 L 247.332031 421.125 L 244.929688 420.578125 C 244.789062 420.578125 244.683594 420.457031 244.703125 420.316406 L 254.03125 371.191406 L 262.296875 328.46875 L 255.011719 328.71875 C 254.753906 328.703125 254.578125 328.460938 254.632812 328.214844 L 261.453125 306.019531 L 237.40625 305.585938 C 237.214844 305.585938 237.042969 305.464844 236.972656 305.273438 L 233.824219 297.648438 L 233.8125 297.648438 L 233.304688 297.679688 L 232.519531 297.730469 C 232.347656 297.742188 232.183594 297.707031 232.023438 297.648438 C 231.671875 297.527344 231.375 297.265625 231.234375 296.902344 L 228.589844 290 C 228.511719 289.796875 228.472656 289.578125 228.46875 289.363281 C 228.46875 289.359375 228.46875 289.359375 228.46875 289.359375 C 228.464844 289.144531 228.5 288.933594 228.570312 288.730469 L 229.742188 285.363281 L 230.035156 284.515625 L 230.03125 284.496094 L 228.378906 274.371094 C 228.292969 274.09375 228.515625 273.816406 228.8125 273.816406 L 250.425781 273.628906 L 261.441406 254.316406 L 269.761719 250.21875 L 274.839844 245.355469 L 274.996094 244.613281 L 275 244.605469 L 266.277344 241.101562 C 264.347656 240.597656 263.863281 239.507812 264.800781 237.753906 L 268.710938 230.671875 C 269.195312 229.769531 269.5625 228.777344 269.648438 227.773438 C 270.289062 221.15625 274.730469 216.515625 281.519531 216.515625 C 288.328125 216.515625 293.503906 221.414062 294.09375 228.066406 C 294.179688 228.988281 294.5625 229.839844 295.082031 230.585938 L 298.566406 236.347656 C 299.730469 238.015625 298.984375 240.339844 297.074219 241.019531 L 290.925781 244.363281 L 291.183594 245.214844 L 296.96875 250.972656 L 305.457031 255.109375 Z M 263.765625 294.929688 L 263.195312 280.917969 L 256.027344 284.527344 L 260.644531 300.652344 Z M 635.824219 375.699219 L 632.191406 382.402344 C 631.460938 383.808594 630.035156 384.695312 628.472656 384.78125 L 628.195312 385.875 C 628.378906 386.234375 628.503906 386.589844 628.65625 386.945312 C 628.65625 386.945312 628.660156 386.949219 628.660156 386.949219 C 631.003906 392.367188 630.132812 397.792969 628.503906 404.714844 C 627.875 407.371094 625.652344 409.335938 622.925781 409.578125 L 586.761719 413.4375 L 588.21875 457.988281 C 586.324219 458.367188 585.660156 460.234375 583.492188 460.375 C 583.492188 460.375 583.488281 460.378906 583.488281 460.382812 C 583.492188 460.382812 583.492188 460.382812 583.496094 460.382812 C 583.210938 461.378906 582.957031 462.289062 582.738281 463.066406 C 582.335938 464.507812 582.066406 465.476562 582.03125 465.601562 C 582.171875 469.265625 580.96875 473.914062 580.605469 479.578125 C 580.605469 480.027344 580.242188 480.394531 579.789062 480.394531 L 577.082031 480.519531 C 576.632812 480.519531 576.265625 480.15625 576.265625 479.703125 L 575.882812 474.480469 C 575.882812 474.289062 575.65625 474.203125 575.519531 474.34375 L 569.5 479.578125 C 569.152344 479.925781 568.667969 480.132812 568.164062 480.132812 L 556.484375 479.621094 C 556.464844 480.125 556.429688 480.625 556.394531 481.128906 C 556.394531 481.582031 556.03125 481.945312 555.578125 481.945312 L 551.769531 482.351562 C 551.316406 482.351562 550.953125 481.984375 550.953125 481.535156 L 550.824219 477.023438 C 550.824219 476.832031 550.597656 476.746094 550.460938 476.886719 L 544.484375 481.492188 C 544.136719 481.839844 543.652344 482.046875 543.148438 482.046875 L 528.210938 482.445312 C 527.6875 482.445312 527.253906 482.03125 527.253906 481.492188 L 527.359375 477.648438 C 527.359375 477.230469 527.621094 476.867188 528.019531 476.726562 L 531.765625 475.578125 C 532.632812 475.265625 533.230469 474.25 534.03125 473.816406 C 535.191406 473.226562 536.304688 472.515625 537.328125 471.699219 L 537.328125 471.679688 C 541.394531 468.449219 544.3125 463.988281 545.664062 458.96875 L 546.960938 454.160156 C 546.964844 454.160156 546.964844 454.160156 546.964844 454.164062 L 546.96875 454.15625 C 545.023438 452.578125 545.203125 450.75 543.359375 449.082031 L 564.242188 407.542969 C 565.71875 404.433594 568.324219 401.984375 571.539062 400.714844 L 600.984375 387.691406 L 600.859375 386.949219 L 600.859375 386.945312 L 600.277344 383.511719 L 591.542969 383.585938 C 591.179688 383.585938 590.902344 383.273438 590.917969 382.910156 L 589.34375 382.707031 L 584.585938 382.644531 L 579.109375 382.574219 C 578.902344 382.574219 578.707031 382.519531 578.507812 382.484375 C 578.046875 382.402344 577.601562 382.265625 577.203125 382.015625 L 569.476562 377.117188 L 569.472656 377.113281 C 569.382812 377.058594 569.308594 376.984375 569.242188 376.910156 C 569.238281 376.902344 569.230469 376.902344 569.226562 376.894531 C 569.175781 376.835938 569.144531 376.765625 569.109375 376.695312 C 569.097656 376.664062 569.074219 376.640625 569.0625 376.609375 C 569.046875 376.570312 569.046875 376.527344 569.035156 376.484375 C 569.007812 376.367188 569.003906 376.246094 569.019531 376.121094 C 569.027344 376.066406 569.023438 376.011719 569.039062 375.957031 L 569.042969 375.957031 C 569.042969 375.953125 569.042969 375.953125 569.042969 375.953125 L 569.128906 375.65625 L 558.648438 350.949219 L 562.527344 352.066406 L 571.925781 351.246094 L 581.457031 368.242188 L 581.460938 368.242188 L 584.34375 369.070312 C 584.46875 369.109375 584.578125 369.175781 584.699219 369.226562 C 584.871094 369.292969 585.046875 369.347656 585.210938 369.441406 L 589.847656 372.183594 L 590.363281 371.160156 C 590.382812 370.8125 590.660156 370.53125 591.007812 370.53125 L 599.285156 370.3125 L 599.839844 360.203125 C 599.753906 357.335938 600.429688 354.488281 601.804688 351.953125 L 608.53125 338.5 L 607.507812 337.222656 L 607.804688 330.539062 L 607.039062 330.511719 L 605.824219 330.46875 C 604.59375 330.421875 603.53125 329.5625 603.339844 328.40625 C 603.292969 328.105469 603.261719 327.8125 603.226562 327.515625 C 603.160156 326.929688 603.113281 326.347656 603.105469 325.746094 C 603.097656 324.847656 603.160156 323.910156 603.289062 322.878906 L 601.066406 321.890625 C 600.761719 321.742188 600.574219 321.46875 600.527344 321.179688 C 600.5 321.039062 600.511719 320.894531 600.554688 320.753906 C 600.601562 320.605469 600.679688 320.464844 600.804688 320.34375 L 603.722656 316.59375 C 603.964844 316.289062 604.113281 315.933594 604.226562 315.570312 C 604.277344 315.414062 604.335938 315.261719 604.367188 315.097656 C 603.710938 310.4375 604.625 308.527344 607.476562 306.722656 C 612.214844 303.160156 621.359375 303.914062 624.917969 308.132812 C 627.382812 310.722656 629.066406 313.824219 629.378906 317.054688 L 629.605469 319.988281 C 629.671875 320.855469 629.96875 321.707031 630.4375 322.453125 L 633.6875 327.3125 C 634.125 328.195312 633.242188 329.265625 632.425781 329.839844 C 629.578125 331.851562 626.753906 331.515625 622.507812 333.253906 L 623.5625 336.53125 L 627.417969 340.921875 C 629.363281 343.128906 630.25 344.441406 630.839844 347.304688 L 636.207031 372.765625 C 636.414062 373.773438 636.277344 374.796875 635.824219 375.699219 Z M 558.773438 471.726562 L 558.757812 471.726562 C 559.921875 471.136719 561.035156 470.421875 562.058594 469.605469 L 562.058594 469.589844 C 562.804688 468.996094 563.503906 468.359375 564.164062 467.683594 C 564.617188 467.222656 565.035156 466.722656 565.449219 466.226562 C 565.609375 466.027344 565.789062 465.84375 565.945312 465.644531 C 566.03125 465.535156 566.101562 465.410156 566.183594 465.300781 C 566.605469 464.738281 567.019531 464.167969 567.390625 463.574219 C 567.414062 463.539062 567.4375 463.507812 567.457031 463.472656 C 567.734375 463.027344 567.964844 462.554688 568.214844 462.09375 C 568.390625 461.765625 568.589844 461.453125 568.75 461.117188 C 568.9375 460.726562 569.152344 460.355469 569.320312 459.957031 C 567.757812 459.765625 565.980469 457.925781 564.695312 457.667969 L 562.902344 460.472656 C 561.722656 460.300781 561.367188 461.574219 560.289062 461.296875 L 558.414062 464.820312 C 558.203125 465.203125 558.011719 465.601562 557.855469 466.019531 C 557.632812 466.558594 557.441406 467.128906 557.300781 467.6875 C 557.351562 469.058594 557.351562 470.65625 557.300781 472.410156 C 557.304688 472.410156 557.304688 472.40625 557.308594 472.40625 C 557.445312 472.351562 557.574219 472.285156 557.703125 472.222656 C 558.0625 472.066406 558.421875 471.910156 558.761719 471.734375 C 558.765625 471.730469 558.769531 471.726562 558.773438 471.726562 Z M 558.773438 471.726562 " fill-opacity="1" fill-rule="nonzero"/><path fill="#824239" d="M 754.277344 374.429688 L 752.320312 348.074219 C 752.148438 345.792969 751.425781 343.585938 750.210938 341.648438 L 745.144531 332.292969 C 744.886719 331.886719 744.410156 331.675781 743.9375 331.765625 L 743.804688 330.851562 L 742.015625 325.320312 L 743.546875 324.320312 C 745.941406 322.746094 747.222656 320.535156 747.351562 318.652344 C 748.007812 316.917969 748.183594 315.660156 748.449219 313.945312 C 749.5625 306.652344 744.339844 302.246094 737.042969 301.1875 C 732.753906 300.5625 729.644531 300.714844 726.882812 303.285156 C 726.1875 303.910156 725.578125 304.621094 725.074219 305.402344 C 724.070312 306.878906 723.871094 309.074219 723.960938 311.277344 C 723.964844 311.304688 723.972656 311.332031 723.980469 311.359375 C 723.738281 312.707031 723.546875 314.105469 723.441406 315.542969 L 723.417969 315.542969 C 719.707031 317.898438 719.75 321.386719 723.460938 322.464844 L 723.472656 322.460938 C 723.601562 323.949219 723.800781 325.394531 724.078125 326.738281 C 724.261719 327.621094 724.996094 328.277344 725.894531 328.332031 L 727.121094 328.40625 L 727.296875 334 L 727.191406 334.96875 C 726.847656 335.035156 726.554688 335.25 726.386719 335.554688 L 720.292969 349.421875 C 719.75 350.410156 719.46875 351.519531 719.46875 352.644531 L 719.65625 372.304688 L 705.726562 370.121094 C 705.632812 370.207031 705.578125 370.253906 705.484375 370.339844 L 704.242188 371.527344 L 700.714844 368.75 C 700.144531 368.296875 699.5 367.945312 698.8125 367.703125 L 693.09375 365.6875 L 685.328125 353.5625 C 685.230469 353.382812 685.03125 353.28125 684.828125 353.304688 L 670.382812 354.917969 C 670.039062 354.960938 669.84375 355.332031 670.003906 355.640625 L 683.460938 380.761719 C 683.558594 380.945312 683.753906 381.050781 683.960938 381.023438 L 688.855469 381.40625 L 690.53125 382.132812 C 691.246094 382.441406 692.023438 382.589844 692.804688 382.554688 L 703.855469 382.105469 L 705.101562 384.050781 C 705.191406 384.144531 705.238281 384.195312 705.328125 384.289062 L 719.257812 384.367188 L 719.894531 390.019531 L 685.585938 403.871094 C 683.15625 404.808594 681.089844 406.546875 679.769531 408.785156 L 678.363281 411.164062 C 677.71875 412.242188 677.269531 413.40625 677.007812 414.621094 L 665.796875 466.65625 C 665.746094 466.847656 665.882812 467.054688 666.074219 467.089844 L 673.929688 469.289062 L 657.039062 478.769531 C 656.363281 479.152344 655.945312 479.882812 655.964844 480.664062 L 656.234375 482.046875 C 656.234375 482.308594 656.441406 482.515625 656.703125 482.515625 L 675.03125 481.90625 C 675.34375 481.90625 675.675781 481.820312 675.96875 481.679688 L 680.03125 479.957031 L 680.710938 482.246094 L 683.800781 481.867188 C 684.058594 481.867188 684.269531 481.65625 684.269531 481.398438 L 684.269531 481.242188 L 704.636719 479.847656 C 705.050781 479.8125 705.46875 479.675781 705.816406 479.449219 L 709.515625 477.710938 L 710.617188 479.789062 L 713.316406 479.144531 C 713.644531 479.089844 713.890625 478.777344 713.835938 478.433594 L 711.464844 468.265625 L 712.992188 468.089844 C 713.203125 468.054688 713.339844 467.882812 713.304688 467.691406 L 707.796875 417.640625 L 743.535156 414.058594 C 746.628906 413.800781 749.023438 411.210938 749.023438 408.085938 L 748.945312 388.632812 L 749.789062 381.90625 L 751.789062 380.257812 C 753.515625 378.835938 754.445312 376.664062 754.277344 374.429688 Z M 684.023438 479.105469 L 683.34375 470.984375 L 684.28125 471.140625 C 684.472656 471.175781 684.648438 471.054688 684.699219 470.878906 L 688.996094 460.859375 L 689 460.90625 L 689 460.914062 L 689.539062 469.796875 C 689.523438 470.023438 689.714844 470.195312 689.9375 470.160156 L 694.671875 470.894531 L 694.691406 470.898438 Z M 501.972656 282.609375 C 502.433594 283.777344 502.328125 285.09375 501.691406 286.175781 L 498.304688 291.714844 C 497.875 292.421875 497.175781 292.921875 496.367188 293.101562 L 484.746094 296.5625 L 483.9375 296.945312 C 483.96875 297.011719 483.953125 297.089844 483.894531 297.140625 L 465.492188 312.578125 C 464.203125 313.648438 462.578125 314.234375 460.902344 314.234375 L 456.601562 314.234375 C 454.546875 314.234375 452.585938 313.351562 451.222656 311.8125 L 442.980469 304.277344 L 442.226562 334.148438 L 460.554688 391.265625 L 472.539062 446.328125 C 472.582031 446.554688 472.40625 446.769531 472.175781 446.773438 L 471.246094 446.78125 L 480.941406 454.453125 C 481.609375 454.933594 482.007812 455.703125 482.007812 456.523438 L 482.203125 458.234375 C 482.203125 458.445312 482.03125 458.617188 481.816406 458.617188 L 465.929688 457.886719 C 465.875 457.886719 465.816406 457.875 465.765625 457.851562 L 461.710938 456.589844 L 461.710938 458.207031 L 457.65625 458.34375 C 457.445312 458.34375 457.273438 458.171875 457.273438 457.960938 L 457.710938 447.054688 L 456.554688 447.066406 C 456.378906 447.070312 456.226562 446.949219 456.183594 446.777344 L 445.019531 391.644531 L 428.203125 351.945312 C 428.113281 351.703125 427.871094 351.554688 427.613281 351.578125 L 423.539062 351.308594 C 423.265625 351.335938 423.046875 351.550781 423.023438 351.828125 L 414.417969 446.480469 C 414.410156 446.578125 414.328125 446.648438 414.234375 446.648438 L 412.980469 446.648438 L 413.90625 458.304688 C 413.90625 458.484375 413.761719 458.628906 413.585938 458.628906 L 410.046875 458.875 L 409.859375 456.703125 L 405.761719 458.441406 C 405.71875 458.464844 405.664062 458.480469 405.613281 458.480469 L 389.699219 458.578125 C 389.519531 458.578125 389.375 458.433594 389.375 458.257812 L 389.1875 456.523438 C 389.1875 455.773438 389.589844 455.082031 390.246094 454.71875 L 403.4375 447.019531 L 401.414062 447.019531 C 401.3125 447.019531 401.230469 446.9375 401.230469 446.835938 L 403.726562 332.792969 L 402.273438 319.539062 L 393.125 323.328125 C 390.023438 324.390625 386.59375 323.375 384.574219 320.796875 L 382.03125 317.5 C 380.066406 314.996094 379.84375 311.539062 381.476562 308.800781 C 388.785156 295.703125 393.140625 284.03125 399.265625 278.761719 L 399.265625 278.765625 L 406.601562 273.769531 L 412.691406 266.90625 L 413.824219 263.332031 L 412.179688 260.28125 C 412.164062 260.25 412.128906 260.230469 412.09375 260.230469 C 405.574219 260.363281 404.449219 252.589844 408.796875 250.980469 L 408.648438 251.003906 C 407.015625 248.03125 407.539062 246.277344 407.546875 242.179688 C 407.753906 240.28125 408.960938 239.472656 410.664062 240.125 C 411.261719 240.355469 411.902344 240.082031 412.246094 239.539062 C 413.308594 237.863281 415.140625 237.207031 417.054688 238.382812 C 417.574219 238.703125 418.226562 238.5625 418.589844 238.070312 C 419.867188 236.332031 421.628906 236.019531 423.320312 237.398438 C 423.738281 237.738281 424.355469 237.785156 424.753906 237.425781 C 426.246094 236.074219 428.199219 235.507812 429.511719 238.363281 C 431.164062 242.105469 431.804688 244.308594 430.953125 247.386719 C 432.117188 252.605469 432.351562 257.800781 431.351562 263.355469 C 431.203125 264.179688 430.488281 264.792969 429.652344 264.839844 L 428.695312 264.898438 L 429.386719 267.421875 L 436.734375 273.914062 L 444.089844 277.339844 L 444.265625 277.429688 L 444.265625 277.4375 C 448.460938 282.421875 454.742188 291.808594 458.699219 297.433594 C 459.148438 298.070312 460.019531 298.242188 460.675781 297.820312 L 477.917969 285.65625 C 478 285.605469 478.105469 285.632812 478.148438 285.71875 L 479.464844 286.113281 L 483.804688 281.351562 C 484.207031 280.90625 484.652344 280.503906 485.132812 280.148438 L 488.425781 277.707031 C 489.046875 277.246094 489.945312 277.609375 490.082031 278.375 C 490.144531 278.730469 490.140625 279.058594 490.109375 279.375 C 490.105469 279.40625 490.097656 279.433594 490.089844 279.464844 C 490.050781 279.761719 489.96875 280.042969 489.855469 280.3125 C 489.855469 280.3125 489.855469 280.3125 489.851562 280.3125 C 489.769531 280.503906 489.679688 280.695312 489.5625 280.875 C 489.449219 281.0625 489.320312 281.246094 489.167969 281.421875 C 488.925781 281.707031 488.699219 282.265625 488.632812 282.636719 L 488.335938 284.273438 L 493.019531 282.265625 C 493.664062 281.988281 494.175781 281.492188 494.480469 280.863281 C 495.003906 279.777344 496.054688 277.980469 497.722656 276.695312 C 497.921875 276.542969 498.128906 276.441406 498.332031 276.390625 C 498.746094 276.285156 499.148438 276.378906 499.457031 276.660156 C 499.464844 276.664062 499.46875 276.664062 499.472656 276.667969 C 499.632812 276.816406 499.769531 277.011719 499.867188 277.257812 L 501.070312 280.3125 Z M 634.949219 327.613281 C 635.382812 328.503906 635.125 329.578125 634.308594 330.15625 C 631.464844 332.167969 627.183594 333.152344 623.125 333.734375 L 622.773438 333.15625 L 622.53125 332.761719 L 622.507812 332.769531 L 620.941406 327.203125 C 626.734375 325.695312 626.894531 318.40625 621.324219 319.867188 C 615.886719 318.457031 610.699219 314.417969 606.46875 309.847656 C 605.511719 311.234375 604.679688 312.957031 604.414062 314.871094 C 604.40625 314.941406 604.378906 315.007812 604.363281 315.074219 C 604.363281 315.082031 604.359375 315.089844 604.359375 315.097656 C 602.601562 311.074219 604.679688 307.652344 607.527344 305.835938 C 612.273438 302.289062 622.632812 303.292969 626.195312 307.519531 C 628.65625 310.097656 629.808594 313 630.121094 316.21875 L 630.355469 319.160156 C 630.425781 320.03125 630.707031 320.875 631.175781 321.625 Z M 118.519531 210.425781 C 118.675781 211.867188 118.832031 213.34375 118.957031 214.820312 C 119.023438 215.707031 118.519531 216.558594 117.722656 216.886719 C 117.601562 216.941406 117.480469 216.972656 117.339844 217.007812 L 105.980469 219.542969 C 104.367188 219.890625 102.683594 219.578125 101.328125 218.675781 L 98.617188 216.871094 L 98.253906 216.628906 L 95.757812 208.101562 L 95.421875 206.953125 C 94.796875 207.035156 94.253906 207.238281 93.773438 207.511719 C 92.660156 208.152344 91.945312 209.222656 91.6875 210.425781 C 87.105469 207.734375 84.101562 198.757812 90.769531 195.925781 C 91.289062 195.699219 91.722656 195.335938 92 194.847656 C 100.875 179.410156 120.570312 181.789062 115.898438 196.550781 L 115.882812 196.566406 C 115.777344 196.238281 115.707031 195.90625 115.605469 195.59375 L 99.972656 199.433594 C 99.496094 199.554688 99.074219 199.777344 98.726562 200.074219 C 97.671875 200.964844 97.285156 202.511719 97.96875 203.839844 L 99.15625 206.152344 L 101.183594 210.097656 C 101.261719 210.253906 101.367188 210.382812 101.484375 210.503906 C 101.632812 210.660156 101.800781 210.792969 101.992188 210.882812 C 102.21875 210.992188 102.472656 211.03125 102.730469 211.03125 C 102.859375 211.035156 102.988281 211.042969 103.117188 211.015625 L 118.191406 207.804688 C 118.3125 208.65625 118.417969 209.542969 118.519531 210.425781 Z M 118.519531 210.425781 " fill-opacity="1" fill-rule="nonzero"/><path fill="#97bce2" d="M 300.117188 143.1875 L 238.527344 143.1875 C 237.441406 143.1875 236.558594 144.066406 236.558594 145.152344 L 236.558594 180.136719 C 236.558594 181.222656 237.441406 182.101562 238.527344 182.101562 L 256.574219 182.101562 L 272.082031 196.882812 C 272.363281 197.152344 272.824219 196.960938 272.835938 196.574219 L 273.269531 182.101562 L 300.117188 182.101562 C 301.203125 182.101562 302.082031 181.222656 302.082031 180.136719 L 302.082031 145.152344 C 302.082031 144.066406 301.203125 143.1875 300.117188 143.1875 Z M 254.734375 166.007812 C 252.878906 166.007812 251.371094 164.5 251.371094 162.644531 C 251.371094 160.785156 252.878906 159.28125 254.734375 159.28125 C 256.59375 159.28125 258.097656 160.785156 258.097656 162.644531 C 258.097656 164.5 256.59375 166.007812 254.734375 166.007812 Z M 269.320312 166.007812 C 267.464844 166.007812 265.957031 164.5 265.957031 162.644531 C 265.957031 160.785156 267.464844 159.28125 269.320312 159.28125 C 271.179688 159.28125 272.683594 160.785156 272.683594 162.644531 C 272.683594 164.5 271.179688 166.007812 269.320312 166.007812 Z M 283.910156 166.007812 C 282.050781 166.007812 280.546875 164.5 280.546875 162.644531 C 280.546875 160.785156 282.050781 159.28125 283.910156 159.28125 C 285.765625 159.28125 287.273438 160.785156 287.273438 162.644531 C 287.273438 164.5 285.765625 166.007812 283.910156 166.007812 Z M 490.414062 306.777344 L 490.414062 319.78125 C 490.414062 319.933594 490.289062 320.058594 490.132812 320.058594 L 477.128906 320.058594 C 476.976562 320.058594 476.847656 319.933594 476.847656 319.78125 L 476.847656 306.777344 C 476.847656 306.621094 476.976562 306.496094 477.128906 306.496094 L 490.132812 306.496094 C 490.289062 306.496094 490.414062 306.621094 490.414062 306.777344 Z M 490.414062 267.027344 L 490.414062 280.03125 C 490.414062 280.1875 490.289062 280.3125 490.132812 280.3125 L 489.855469 280.3125 C 490.101562 279.734375 490.210938 279.105469 490.082031 278.375 C 489.945312 277.609375 489.046875 277.246094 488.425781 277.707031 L 485.132812 280.148438 C 485.070312 280.199219 485.019531 280.261719 484.953125 280.3125 L 477.128906 280.3125 C 476.976562 280.3125 476.847656 280.1875 476.847656 280.03125 L 476.847656 267.027344 C 476.847656 266.875 476.976562 266.746094 477.128906 266.746094 L 490.132812 266.746094 C 490.289062 266.746094 490.414062 266.875 490.414062 267.027344 Z M 490.414062 247.433594 L 490.414062 260.4375 C 490.414062 260.589844 490.289062 260.714844 490.132812 260.714844 L 477.128906 260.714844 C 476.976562 260.714844 476.847656 260.589844 476.847656 260.4375 L 476.847656 247.433594 C 476.847656 247.277344 476.976562 247.152344 477.128906 247.152344 L 490.132812 247.152344 C 490.289062 247.152344 490.414062 247.277344 490.414062 247.433594 Z M 512.488281 306.777344 L 512.488281 319.78125 C 512.488281 319.933594 512.359375 320.058594 512.207031 320.058594 L 499.203125 320.058594 C 499.046875 320.058594 498.921875 319.933594 498.921875 319.78125 L 498.921875 306.777344 C 498.921875 306.621094 499.046875 306.496094 499.203125 306.496094 L 512.207031 306.496094 C 512.359375 306.496094 512.488281 306.621094 512.488281 306.777344 Z M 512.488281 287.121094 L 512.488281 300.125 C 512.488281 300.277344 512.359375 300.402344 512.207031 300.402344 L 499.203125 300.402344 C 499.046875 300.402344 498.921875 300.277344 498.921875 300.125 L 498.921875 290.707031 L 501.285156 286.839844 L 512.207031 286.839844 C 512.359375 286.839844 512.488281 286.964844 512.488281 287.121094 Z M 533.710938 287.121094 L 533.710938 300.125 C 533.710938 300.277344 533.585938 300.402344 533.429688 300.402344 L 520.429688 300.402344 C 520.273438 300.402344 520.148438 300.277344 520.148438 300.125 L 520.148438 287.121094 C 520.148438 286.964844 520.273438 286.839844 520.429688 286.839844 L 533.429688 286.839844 C 533.585938 286.839844 533.710938 286.964844 533.710938 287.121094 Z M 512.488281 267.027344 L 512.488281 280.03125 C 512.488281 280.1875 512.359375 280.3125 512.207031 280.3125 L 501.070312 280.3125 L 499.867188 277.257812 C 499.671875 276.761719 499.324219 276.46875 498.921875 276.378906 L 498.921875 267.027344 C 498.921875 266.875 499.046875 266.746094 499.203125 266.746094 L 512.207031 266.746094 C 512.359375 266.746094 512.488281 266.875 512.488281 267.027344 Z M 533.710938 267.027344 L 533.710938 280.03125 C 533.710938 280.1875 533.585938 280.3125 533.429688 280.3125 L 520.429688 280.3125 C 520.273438 280.3125 520.148438 280.1875 520.148438 280.03125 L 520.148438 267.027344 C 520.148438 266.875 520.273438 266.746094 520.429688 266.746094 L 533.429688 266.746094 C 533.585938 266.746094 533.710938 266.875 533.710938 267.027344 Z M 512.488281 247.433594 L 512.488281 260.4375 C 512.488281 260.589844 512.359375 260.714844 512.207031 260.714844 L 499.203125 260.714844 C 499.046875 260.714844 498.921875 260.589844 498.921875 260.4375 L 498.921875 247.433594 C 498.921875 247.277344 499.046875 247.152344 499.203125 247.152344 L 512.207031 247.152344 C 512.359375 247.152344 512.488281 247.277344 512.488281 247.433594 Z M 533.710938 247.433594 L 533.710938 260.4375 C 533.710938 260.589844 533.585938 260.714844 533.429688 260.714844 L 520.429688 260.714844 C 520.273438 260.714844 520.148438 260.589844 520.148438 260.4375 L 520.148438 247.433594 C 520.148438 247.277344 520.273438 247.152344 520.429688 247.152344 L 533.429688 247.152344 C 533.585938 247.152344 533.710938 247.277344 533.710938 247.433594 Z M 478.585938 236.46875 L 478.585938 232.691406 C 478.585938 232.535156 478.710938 232.410156 478.867188 232.410156 L 531.695312 232.410156 C 531.851562 232.410156 531.976562 232.535156 531.976562 232.691406 L 531.976562 236.46875 C 531.976562 236.625 531.851562 236.75 531.695312 236.75 L 478.867188 236.75 C 478.710938 236.75 478.585938 236.625 478.585938 236.46875 Z M 200.257812 113.289062 L 109.796875 113.289062 C 109.171875 113.289062 108.664062 113.796875 108.664062 114.421875 L 108.664062 152.089844 C 108.664062 152.714844 109.171875 153.222656 109.796875 153.222656 L 143.226562 153.222656 L 140.585938 168.179688 C 140.445312 168.96875 141.359375 169.511719 141.984375 169.007812 L 161.589844 153.222656 L 200.257812 153.222656 C 200.882812 153.222656 201.390625 152.714844 201.390625 152.089844 L 201.390625 114.421875 C 201.390625 113.796875 200.882812 113.289062 200.257812 113.289062 Z M 126.921875 136.621094 C 125.066406 136.621094 123.558594 135.113281 123.558594 133.257812 C 123.558594 131.398438 125.066406 129.894531 126.921875 129.894531 C 128.78125 129.894531 130.285156 131.398438 130.285156 133.257812 C 130.285156 135.113281 128.78125 136.621094 126.921875 136.621094 Z M 144.867188 136.621094 C 143.007812 136.621094 141.503906 135.113281 141.503906 133.257812 C 141.503906 131.398438 143.007812 129.894531 144.867188 129.894531 C 146.722656 129.894531 148.230469 131.398438 148.230469 133.257812 C 148.230469 135.113281 146.722656 136.621094 144.867188 136.621094 Z M 162.808594 136.621094 C 160.949219 136.621094 159.445312 135.113281 159.445312 133.257812 C 159.445312 131.398438 160.949219 129.894531 162.808594 129.894531 C 164.664062 129.894531 166.171875 131.398438 166.171875 133.257812 C 166.171875 135.113281 164.664062 136.621094 162.808594 136.621094 Z M 180.75 136.621094 C 178.894531 136.621094 177.386719 135.113281 177.386719 133.257812 C 177.386719 131.398438 178.894531 129.894531 180.75 129.894531 C 182.609375 129.894531 184.113281 131.398438 184.113281 133.257812 C 184.113281 135.113281 182.609375 136.621094 180.75 136.621094 Z M 485.320312 297.976562 L 465.140625 314.726562 C 464.664062 315.125 464.128906 315.429688 463.570312 315.6875 C 462.628906 316.128906 461.605469 316.382812 460.550781 316.382812 L 456.25 316.382812 C 454.195312 316.382812 452.234375 315.5 450.871094 313.960938 L 444.582031 306.855469 L 443.808594 332.882812 L 444.496094 306.761719 L 444.523438 305.691406 L 445.238281 278.632812 L 445.3125 275.871094 L 445.316406 275.675781 L 445.492188 275.761719 L 445.492188 275.773438 C 449.6875 280.753906 455.128906 289.488281 459.089844 295.113281 C 459.539062 295.75 460.410156 295.921875 461.066406 295.5 L 463.570312 293.882812 L 478.363281 284.324219 C 478.441406 284.273438 478.546875 284.300781 478.589844 284.386719 L 479.464844 286.113281 L 484.746094 296.5625 L 485.363281 297.78125 C 485.394531 297.847656 485.378906 297.925781 485.320312 297.976562 Z M 429.386719 267.421875 L 437.964844 272.246094 L 437.238281 274.148438 L 434.324219 281.789062 C 434.261719 281.953125 434.058594 282.011719 433.917969 281.90625 L 430.246094 279.121094 C 429.859375 278.828125 429.355469 278.75 428.898438 278.910156 L 424.21875 280.550781 L 424.183594 280.574219 L 424.160156 280.558594 L 419.574219 279.15625 C 419.152344 279.027344 418.699219 279.101562 418.335938 279.351562 L 413.292969 282.835938 C 413.175781 282.917969 413.015625 282.890625 412.929688 282.777344 L 406.410156 273.898438 L 405.269531 272.347656 L 412.691406 266.90625 L 413.917969 268.363281 L 424.183594 280.566406 L 429.015625 268.363281 Z M 417.664062 313.765625 L 417.875 316.238281 C 417.828125 316.308594 417.792969 316.359375 417.746094 316.429688 L 402.507812 321.65625 L 400.039062 322.5 L 391.996094 325.257812 C 388.898438 326.316406 385.46875 325.304688 383.445312 322.726562 L 379.320312 317.472656 C 377.355469 314.96875 377.136719 311.507812 378.769531 308.773438 C 386.078125 295.675781 391.9375 281.726562 398.0625 276.453125 L 398.0625 276.457031 L 398.203125 279.113281 L 398.234375 279.730469 L 399.191406 298.566406 L 398.851562 303.742188 L 416.363281 300.828125 C 416.46875 300.8125 416.570312 300.890625 416.578125 301 L 416.683594 302.25 Z M 583.574219 372.667969 L 584.03125 373.625 L 578.128906 373.199219 C 577.734375 373.167969 577.367188 373.035156 577.019531 372.863281 C 576.832031 372.769531 576.640625 372.679688 576.46875 372.550781 C 576.402344 372.496094 576.320312 372.4375 576.242188 372.382812 C 575.203125 371.625 573.378906 370.570312 571.308594 370.632812 C 570.894531 370.648438 570.542969 370.960938 570.421875 371.359375 L 569.800781 373.421875 C 569.800781 373.425781 569.800781 373.425781 569.800781 373.425781 L 569.128906 375.65625 L 569.117188 375.628906 L 556.574219 350.078125 C 556.398438 349.71875 556.75 349.332031 557.125 349.46875 L 560.695312 350.792969 C 560.753906 350.816406 560.816406 350.824219 560.882812 350.820312 L 572.441406 349.910156 C 572.621094 349.894531 572.792969 349.992188 572.871094 350.160156 L 581.460938 368.242188 Z M 119.917969 253.777344 L 120.988281 283.230469 L 106.402344 283.230469 L 106.214844 281.894531 L 105.582031 277.3125 L 107.710938 276.898438 L 112.738281 275.9375 C 113.054688 275.871094 113.351562 275.753906 113.636719 275.609375 C 114.101562 275.382812 114.519531 275.066406 114.851562 274.65625 L 119.410156 269.046875 C 119.613281 268.796875 119.75 268.507812 119.824219 268.203125 C 119.910156 267.859375 119.914062 267.496094 119.824219 267.148438 L 118.46875 262.042969 C 118.277344 261.347656 117.460938 261.015625 116.835938 261.382812 C 115.460938 262.191406 114.335938 263.203125 113.496094 264.464844 C 113.453125 264.527344 113.40625 264.578125 113.367188 264.640625 C 113.105469 265.054688 112.695312 265.355469 112.207031 265.421875 L 105.769531 266.699219 C 105.769531 266.699219 107.777344 263.726562 107.789062 263.714844 C 107.878906 263.578125 108.011719 263.488281 108.160156 263.421875 C 110.328125 262.492188 111.144531 261.148438 111.304688 260.308594 C 111.417969 259.714844 110.910156 259.558594 110.910156 259.558594 C 110.5 259.429688 108.132812 260.117188 106.457031 260.542969 L 106.347656 260.566406 C 105.878906 260.671875 105.425781 260.828125 104.976562 261.015625 L 104.109375 261.328125 L 103.78125 261.445312 L 103.382812 261.585938 L 101.257812 246.335938 L 98.394531 225.726562 L 110.777344 235.4375 C 111.246094 235.800781 111.9375 235.660156 112.234375 235.140625 L 118.832031 223.910156 Z M 298.542969 249.191406 L 298.546875 249.191406 L 297.226562 251.101562 L 292.429688 258.058594 C 292.351562 258.179688 292.183594 258.203125 292.074219 258.105469 L 291.449219 257.550781 L 290.503906 256.710938 L 289.496094 255.816406 C 289.347656 255.683594 289.128906 255.675781 288.96875 255.789062 L 278.65625 263.273438 L 289.570312 247.53125 L 291.179688 245.210938 L 291.191406 245.21875 Z M 274.964844 245.953125 L 278.65625 263.273438 L 274.582031 255.304688 C 274.523438 255.199219 274.425781 255.144531 274.320312 255.109375 C 274.1875 255.070312 274.042969 255.078125 273.925781 255.179688 L 270.734375 257.996094 C 270.59375 258.121094 270.367188 258.035156 270.34375 257.847656 L 269.652344 252.382812 L 269.398438 250.394531 L 269.179688 248.65625 L 274.824219 245.367188 L 274.839844 245.359375 Z M 263.179688 306.585938 C 263.199219 306.65625 263.199219 306.726562 263.1875 306.792969 C 263.144531 306.992188 262.96875 307.148438 262.746094 307.148438 L 236.882812 307.148438 C 236.679688 307.148438 236.507812 307.015625 236.449219 306.824219 L 233.8125 297.648438 L 238.03125 297.390625 C 238.480469 297.363281 238.898438 297.144531 239.175781 296.789062 L 243.71875 290.964844 C 244.011719 290.589844 244.066406 290.085938 243.867188 289.660156 L 241.929688 285.488281 C 241.734375 285.070312 241.324219 284.785156 240.863281 284.773438 C 239.722656 284.746094 237.570312 284.964844 236.183594 286.792969 C 235.816406 287.28125 235.257812 287.589844 234.65625 287.683594 L 231.109375 288.238281 L 230.03125 284.496094 L 226.71875 272.972656 C 226.636719 272.6875 226.851562 272.402344 227.152344 272.402344 L 253.679688 272.402344 C 253.882812 272.402344 254.058594 272.539062 254.113281 272.734375 L 257.125 283.976562 L 257.125 283.980469 L 257.515625 285.4375 L 261.035156 298.574219 L 261.277344 299.488281 L 261.28125 299.488281 Z M 697.070312 373.035156 L 692.277344 373.035156 C 691.652344 373.035156 691.042969 372.90625 690.460938 372.683594 C 690.417969 372.667969 690.347656 372.648438 690.304688 372.632812 C 690.105469 372.558594 689.894531 372.488281 689.648438 372.414062 C 689.523438 372.375 689.40625 372.339844 689.269531 372.304688 C 689 372.230469 688.707031 372.164062 688.398438 372.105469 C 688.265625 372.078125 688.148438 372.050781 688.011719 372.027344 C 687.5625 371.953125 687.089844 371.902344 686.59375 371.886719 C 686.515625 371.882812 686.433594 371.894531 686.355469 371.894531 C 685.9375 371.894531 685.511719 371.921875 685.078125 371.980469 C 685.007812 371.992188 684.941406 371.984375 684.871094 371.996094 C 684.808594 372.003906 684.753906 372.035156 684.695312 372.054688 C 684.269531 372.203125 683.960938 372.582031 683.960938 373.042969 L 683.960938 378.597656 C 683.960938 379.015625 684.210938 379.394531 684.59375 379.5625 L 688.855469 381.40625 L 683.433594 382.042969 C 683.230469 382.066406 683.03125 381.960938 682.9375 381.777344 L 668.6875 354.675781 C 668.523438 354.371094 668.722656 353.996094 669.066406 353.953125 L 685.304688 351.925781 C 685.511719 351.898438 685.707031 352 685.804688 352.183594 L 693.09375 365.6875 Z M 697.070312 373.035156 " fill-opacity="1" fill-rule="nonzero"/><path fill="#000000" d="M 483.0625 456.132812 L 483.0625 459.066406 C 483.0625 459.28125 482.890625 459.453125 482.679688 459.453125 L 466.023438 459.453125 C 465.964844 459.453125 465.90625 459.441406 465.855469 459.414062 L 462.554688 457.835938 L 462.554688 459.453125 L 456.972656 459.453125 C 456.757812 459.453125 456.585938 459.28125 456.585938 459.066406 L 456.585938 447.707031 L 457.683594 447.695312 L 472.207031 447.542969 L 472.902344 447.535156 L 482 454.0625 C 482.667969 454.542969 483.0625 455.3125 483.0625 456.132812 Z M 437.238281 274.148438 L 434.324219 281.789062 C 434.261719 281.953125 434.058594 282.011719 433.917969 281.90625 L 430.246094 279.121094 C 429.859375 278.828125 429.355469 278.75 428.898438 278.910156 L 424.21875 280.550781 L 424.183594 280.574219 L 424.160156 280.558594 L 419.574219 279.15625 C 419.152344 279.027344 418.699219 279.101562 418.335938 279.351562 L 413.292969 282.835938 C 413.175781 282.917969 413.015625 282.890625 412.929688 282.777344 L 406.410156 273.898438 L 405.269531 272.347656 L 398.0625 276.457031 L 398.203125 279.113281 L 398.234375 279.730469 L 399.191406 298.566406 L 398.851562 303.742188 L 416.363281 300.828125 C 416.46875 300.8125 416.570312 300.890625 416.578125 301 L 416.683594 302.25 L 421.871094 298.933594 C 422.3125 298.648438 422.785156 298.40625 423.273438 298.207031 L 426.769531 296.78125 C 427.464844 296.496094 428.25 297.105469 428.066406 297.835938 C 427.765625 299.054688 426.796875 300.320312 425.585938 301.195312 C 425.269531 301.425781 424.960938 301.671875 424.703125 301.96875 L 423.109375 303.808594 L 429.621094 302.996094 C 430.054688 302.941406 430.441406 302.730469 430.714844 302.390625 C 431.433594 301.507812 433.667969 299.136719 436.140625 298.054688 C 436.914062 297.71875 437.78125 298.242188 437.796875 299.082031 L 438.335938 303.546875 C 438.464844 304.628906 438.15625 305.71875 437.480469 306.574219 L 433.089844 312.109375 C 432.261719 313.15625 431 313.765625 429.667969 313.765625 L 417.664062 313.765625 L 417.875 316.238281 C 417.828125 316.308594 417.792969 316.359375 417.746094 316.429688 L 402.507812 321.65625 L 400.039062 322.5 L 400.804688 332.882812 L 443.808594 332.882812 L 444.496094 306.761719 L 444.523438 305.691406 L 445.238281 278.632812 L 445.3125 275.871094 L 445.316406 275.675781 L 437.964844 272.246094 Z M 408.796875 250.980469 C 409.230469 250.820312 409.699219 250.699219 410.242188 250.679688 L 410.28125 250.746094 L 412.09375 253.910156 C 412.152344 254.007812 412.265625 254.066406 412.378906 254.058594 L 414.859375 253.835938 C 415.015625 253.820312 415.132812 253.691406 415.132812 253.535156 L 415.183594 249.972656 L 415.226562 247.101562 C 415.242188 246.140625 415.992188 245.347656 416.953125 245.28125 L 430.183594 244.347656 C 430.476562 245.363281 430.726562 246.375 430.953125 247.386719 C 431.804688 244.308594 431.972656 241.320312 430.320312 237.578125 C 429.003906 234.722656 426.191406 234.746094 424.699219 236.097656 C 424.300781 236.457031 423.683594 236.410156 423.265625 236.070312 C 421.574219 234.691406 419.351562 234.953125 418.074219 236.691406 C 417.710938 237.183594 417.0625 237.324219 416.539062 237.003906 C 414.625 235.828125 412.75 236.574219 411.6875 238.25 C 411.34375 238.789062 410.703125 239.0625 410.101562 238.832031 C 408.402344 238.183594 406.394531 239.496094 406.1875 241.394531 C 406.179688 245.492188 407.015625 248.03125 408.648438 251.003906 Z M 402.578125 447.523438 L 401.230469 447.523438 L 389.101562 454.300781 C 388.449219 454.667969 388.042969 455.355469 388.042969 456.105469 L 388.042969 459.128906 C 388.042969 459.308594 388.1875 459.453125 388.367188 459.453125 L 405.953125 459.453125 C 406.007812 459.453125 406.058594 459.441406 406.105469 459.417969 L 409.140625 457.835938 L 409.140625 459.453125 L 414.09375 459.453125 C 414.273438 459.453125 414.417969 459.308594 414.417969 459.128906 L 414.417969 447.523438 Z M 582.03125 465.59375 L 570.8125 470.214844 C 568.9375 471.203125 566.851562 471.726562 564.734375 471.726562 L 558.757812 471.726562 C 558.53125 471.851562 558.285156 471.949219 558.050781 472.0625 C 557.800781 472.179688 557.558594 472.308594 557.308594 472.414062 C 557.308594 472.410156 557.308594 472.410156 557.308594 472.40625 C 557.351562 470.652344 557.355469 469.054688 557.300781 467.6875 L 546.082031 472.304688 C 544.207031 473.296875 542.121094 473.816406 540.003906 473.816406 L 534.03125 473.816406 C 533.230469 474.25 532.378906 474.617188 531.511719 474.929688 L 527.117188 476.472656 C 526.71875 476.613281 526.457031 476.976562 526.457031 477.394531 L 526.457031 481.960938 C 526.457031 482.5 526.890625 482.917969 527.414062 482.917969 L 543.859375 482.917969 C 544.363281 482.917969 544.847656 482.707031 545.195312 482.359375 L 547.265625 480.292969 L 549.988281 477.566406 C 550.128906 477.429688 550.355469 477.515625 550.355469 477.707031 L 550.355469 482.34375 C 550.355469 482.796875 550.71875 483.160156 551.171875 483.160156 L 556 483.160156 C 556.449219 483.160156 556.816406 482.796875 556.816406 482.34375 C 556.847656 481.832031 556.878906 481.332031 556.910156 480.828125 L 568.589844 480.828125 C 569.078125 480.828125 569.546875 480.625 569.890625 480.292969 C 569.902344 480.285156 569.917969 480.28125 569.925781 480.269531 L 574.71875 475.476562 C 574.859375 475.339844 575.085938 475.425781 575.085938 475.617188 L 575.085938 480.253906 C 575.085938 480.265625 575.09375 480.28125 575.09375 480.292969 C 575.113281 480.726562 575.464844 481.070312 575.902344 481.070312 L 580.730469 481.070312 C 581.167969 481.070312 581.515625 480.726562 581.535156 480.292969 C 581.539062 480.28125 581.546875 480.265625 581.546875 480.253906 C 581.902344 474.617188 582.175781 469.296875 582.03125 465.621094 C 582.03125 465.613281 582.03125 465.605469 582.03125 465.59375 Z M 628.660156 386.949219 L 599.085938 386.949219 L 586.140625 392.101562 L 586.140625 394.273438 L 586.128906 394.273438 L 588.640625 409.988281 L 629.253906 409.988281 C 629.808594 409.445312 630.265625 408.804688 630.59375 408.085938 L 631.394531 405.046875 C 632.707031 398.386719 632.496094 392.242188 629.78125 386.949219 Z M 585.523438 412.34375 L 558.9375 412.34375 L 541.335938 449.226562 C 543.179688 450.898438 545.019531 452.582031 546.960938 454.160156 C 546.964844 454.160156 546.964844 454.160156 546.964844 454.164062 C 550.742188 457.230469 554.917969 459.894531 560.292969 461.289062 C 560.308594 461.292969 560.328125 461.296875 560.34375 461.300781 C 561.402344 461.574219 562.5 461.804688 563.65625 461.972656 L 565.039062 459.285156 C 566.308594 459.539062 567.734375 459.761719 569.285156 459.949219 C 569.296875 459.949219 569.308594 459.953125 569.324219 459.953125 C 573.613281 460.46875 578.738281 460.679688 583.488281 460.382812 C 583.492188 460.382812 583.492188 460.382812 583.496094 460.382812 C 585.664062 460.242188 587.761719 460.003906 589.65625 459.628906 L 589.65625 438.054688 L 587.03125 421.730469 Z M 585.015625 409.1875 L 582.851562 395.710938 L 582.621094 394.273438 L 580.6875 394.273438 L 569.46875 398.738281 C 566.265625 400.011719 563.660156 402.449219 562.175781 405.5625 L 560.445312 409.1875 Z M 609.734375 337.9375 L 610.949219 340.921875 L 623.53125 336.425781 L 624.546875 336.0625 L 623.125 333.734375 L 622.773438 333.15625 L 622.53125 332.761719 L 622.507812 332.769531 L 607.507812 337.222656 L 607.476562 337.9375 Z M 188.03125 247.589844 L 188.027344 247.585938 L 182.101562 235.75 L 182.097656 235.746094 L 181.238281 234.027344 C 181.09375 233.742188 180.730469 233.644531 180.460938 233.824219 L 159.417969 247.957031 C 159.304688 248.03125 159.152344 248.007812 159.070312 247.902344 L 146.773438 231.890625 C 142.605469 226.46875 136.503906 222.863281 129.746094 221.832031 L 118.699219 220.148438 L 118.695312 220.144531 L 118.695312 220.148438 L 118.792969 222.871094 L 118.832031 223.910156 L 119.917969 253.777344 L 120.992188 283.230469 L 106.402344 283.230469 L 106.214844 281.894531 L 105.578125 277.3125 L 103.777344 277.660156 C 103.367188 277.742188 102.949219 277.78125 102.53125 277.78125 L 93.296875 277.78125 L 91.90625 265.648438 L 97.261719 263.753906 L 99.527344 262.949219 L 103.375 261.585938 L 103.382812 261.585938 L 101.257812 246.335938 L 98.382812 225.71875 L 98.304688 225.148438 L 97.976562 222.804688 L 97.972656 222.792969 L 86.769531 227.582031 C 80.566406 230.234375 75.609375 235.148438 72.902344 241.328125 L 58.511719 274.179688 C 57.667969 276.0625 57.839844 278.246094 58.960938 279.976562 L 64.089844 287.867188 C 65.683594 290.316406 68.796875 291.285156 71.5 290.171875 L 82.359375 285.6875 L 81.625 311.308594 C 81.609375 311.757812 81.984375 312.121094 82.433594 312.101562 L 86.757812 311.875 L 58.398438 414.828125 C 58.335938 415.058594 58.484375 415.292969 58.722656 415.332031 L 60.28125 415.589844 L 59.257812 416.699219 C 58.90625 417.078125 58.480469 417.386719 58.003906 417.59375 L 47.171875 422.34375 C 47.007812 422.414062 46.902344 422.578125 46.902344 422.757812 L 46.902344 427.902344 C 46.902344 428.148438 47.105469 428.351562 47.355469 428.351562 L 59.890625 428.351562 C 60.886719 428.351562 61.878906 428.246094 62.851562 428.03125 L 68.871094 426.710938 L 68.871094 428.351562 L 75.203125 428.351562 C 75.285156 427.730469 75.339844 427.09375 75.394531 426.453125 C 75.617188 423.789062 75.597656 420.984375 75.402344 418.082031 L 76.78125 418.308594 C 76.976562 418.339844 77.164062 418.230469 77.226562 418.046875 L 95.140625 362.496094 C 95.570312 361.171875 96.035156 359.855469 96.539062 358.554688 L 112.25 317.945312 C 112.300781 317.796875 112.425781 317.6875 112.578125 317.652344 L 115.796875 316.898438 C 116.046875 316.839844 116.296875 317 116.347656 317.25 L 125.046875 355.503906 C 125.550781 357.367188 125.921875 359.265625 126.164062 361.179688 L 134.773438 418.113281 C 134.796875 418.253906 134.925781 418.355469 135.070312 418.34375 L 135.957031 418.28125 C 135.796875 421.046875 135.824219 423.773438 136.023438 426.453125 C 136.066406 427.035156 136.109375 427.617188 136.167969 428.191406 C 136.238281 428.253906 136.28125 428.292969 136.351562 428.351562 L 142.164062 428.351562 L 142.164062 426.710938 L 146.796875 427.910156 C 147.929688 428.203125 149.09375 428.351562 150.261719 428.351562 L 162.351562 428.351562 C 162.601562 428.351562 162.804688 428.148438 162.804688 427.902344 L 162.804688 422.746094 C 162.804688 422.570312 162.703125 422.414062 162.546875 422.339844 L 154.527344 418.515625 C 153.871094 418.199219 153.300781 417.726562 152.878906 417.132812 L 152.804688 417.027344 L 154.300781 416.917969 C 154.460938 416.90625 154.578125 416.761719 154.554688 416.601562 L 139.816406 308.394531 L 144.582031 308.082031 C 145.023438 308.054688 145.351562 307.660156 145.296875 307.21875 L 140.28125 265.992188 L 140.28125 259.773438 L 148.300781 268.492188 C 149.652344 269.960938 151.554688 270.796875 153.550781 270.796875 L 161.054688 270.796875 C 162.730469 270.796875 164.355469 270.207031 165.640625 269.128906 L 188.871094 250.199219 C 189.066406 250.042969 189.125 249.769531 189.011719 249.546875 Z M 265.777344 242.160156 L 274.996094 244.613281 L 275.328125 243.054688 C 271.96875 240.960938 269.84375 236.027344 270.871094 228.796875 C 273.855469 228.328125 279.128906 227.109375 282.757812 224.578125 C 282.996094 224.410156 283.304688 224.472656 283.464844 224.710938 C 284.589844 226.363281 286.898438 228.832031 287.945312 229.921875 C 288.203125 230.195312 288.648438 230.109375 288.804688 229.769531 L 289.347656 228.601562 C 294.707031 227.878906 295.726562 235.691406 289 237.921875 L 290.921875 244.359375 L 290.953125 244.347656 L 298.890625 241.515625 C 300.804688 240.835938 301.546875 238.515625 300.382812 236.847656 L 295.703125 230.128906 C 295.179688 229.378906 294.800781 228.519531 294.71875 227.605469 C 294.117188 220.953125 288.527344 215.738281 281.714844 215.738281 C 274.933594 215.738281 269.359375 220.910156 268.71875 227.527344 C 268.621094 228.546875 268.265625 229.523438 267.78125 230.425781 L 263.851562 237.71875 C 262.910156 239.472656 263.851562 241.648438 265.777344 242.160156 Z M 309.703125 258.890625 C 308.507812 255.015625 305.605469 251.90625 301.824219 250.453125 L 298.542969 249.191406 L 298.546875 249.191406 L 297.226562 251.101562 L 292.429688 258.058594 C 292.351562 258.179688 292.183594 258.203125 292.074219 258.105469 L 291.449219 257.550781 L 290.503906 256.710938 L 288.414062 276.882812 L 286.453125 276.480469 C 286.25 276.4375 286.046875 276.566406 286 276.769531 L 285.65625 278.257812 L 283.320312 288.378906 L 282.628906 291.371094 C 282.609375 291.460938 282.621094 291.554688 282.660156 291.628906 C 282.675781 291.65625 282.703125 291.667969 282.722656 291.6875 C 282.761719 291.734375 282.796875 291.785156 282.855469 291.808594 L 286.703125 293.378906 L 286.453125 295.800781 L 286.574219 300.65625 L 272.347656 300.65625 L 272.992188 285.765625 C 271.789062 285.894531 270.738281 285.613281 270.167969 285.359375 C 269.859375 285.226562 269.6875 284.898438 269.75 284.570312 L 270.488281 280.675781 C 270.566406 280.265625 270.824219 279.910156 271.191406 279.710938 L 273.296875 278.769531 L 274.320312 255.109375 C 274.1875 255.070312 274.042969 255.078125 273.925781 255.179688 L 270.734375 257.996094 C 270.59375 258.121094 270.367188 258.035156 270.34375 257.847656 L 269.652344 252.382812 L 269.398438 250.394531 L 269.179688 248.65625 L 264.398438 251.015625 C 262.09375 252.152344 260.167969 253.9375 258.863281 256.148438 L 249.273438 272.402344 L 253.679688 272.402344 C 253.882812 272.402344 254.058594 272.539062 254.113281 272.734375 L 257.125 283.976562 L 257.125 283.980469 L 257.515625 285.4375 L 261.675781 282.5625 L 262 294.59375 L 261.035156 298.574219 L 261.277344 299.488281 L 261.28125 299.488281 L 263.179688 306.585938 C 263.199219 306.65625 263.199219 306.726562 263.1875 306.792969 C 263.144531 306.992188 262.96875 307.148438 262.746094 307.148438 L 258.949219 307.148438 L 253.484375 329.644531 C 253.421875 329.894531 253.605469 330.136719 253.863281 330.148438 L 259.425781 330.375 L 252.117188 369.867188 L 243.867188 420.871094 C 243.84375 421.003906 243.945312 421.121094 244.078125 421.121094 L 261.828125 421.121094 C 261.929688 421.121094 262.015625 421.050781 262.039062 420.953125 L 272.746094 370.378906 L 281.582031 334.875 C 281.648438 334.605469 281.910156 334.4375 282.183594 334.484375 L 284.261719 334.871094 C 284.492188 334.914062 284.664062 335.101562 284.6875 335.332031 L 289.925781 420.914062 C 290.011719 420.996094 290.0625 421.042969 290.148438 421.121094 L 307.652344 421.121094 C 307.769531 421.121094 307.867188 421.027344 307.867188 420.90625 L 307.867188 330.296875 L 311.664062 330.050781 C 311.917969 330.035156 312.09375 329.792969 312.035156 329.546875 L 305.328125 300.96875 L 305.855469 301.183594 C 308.644531 302.523438 311.984375 301.785156 313.953125 299.402344 L 317.640625 294.925781 C 319.082031 293.183594 319.546875 290.832031 318.878906 288.671875 Z M 305.375 428.191406 L 297.277344 433.035156 C 296.351562 433.585938 295.195312 433.378906 294.445312 432.605469 C 293.023438 431.148438 291.523438 430.472656 290.316406 430.171875 C 290.265625 430.226562 290.210938 430.261719 290.160156 430.292969 L 280.296875 436.355469 C 280.070312 436.511719 279.929688 436.753906 279.929688 437.03125 L 279.929688 439.636719 C 279.929688 439.957031 280.121094 440.226562 280.394531 440.347656 C 280.492188 440.394531 280.597656 440.417969 280.710938 440.417969 L 295.742188 440.417969 C 295.851562 440.417969 295.949219 440.378906 296.046875 440.347656 C 296.242188 440.285156 296.421875 440.1875 296.550781 440.019531 L 300.214844 435.226562 L 300.214844 440.054688 C 300.214844 440.1875 300.300781 440.285156 300.410156 440.347656 C 300.464844 440.378906 300.515625 440.417969 300.582031 440.417969 L 305.355469 440.417969 C 305.421875 440.417969 305.472656 440.378906 305.523438 440.347656 C 305.636719 440.285156 305.722656 440.183594 305.722656 440.054688 C 306.171875 436.320312 306.277344 432.65625 305.496094 428.976562 C 305.445312 428.714844 305.410156 428.453125 305.375 428.191406 Z M 257.925781 429.582031 C 255.203125 431.484375 252.332031 432.851562 249.332031 433.628906 C 248.796875 433.769531 248.246094 433.570312 247.855469 433.179688 C 246.53125 431.851562 244.914062 430.871094 243.007812 430.226562 C 242.367188 430.796875 241.652344 431.320312 240.871094 431.734375 L 232.3125 436.414062 C 232.222656 436.460938 232.15625 436.535156 232.101562 436.617188 C 232.097656 436.625 232.085938 436.628906 232.082031 436.636719 C 232.027344 436.730469 231.996094 436.835938 231.996094 436.945312 L 231.996094 439.828125 C 231.996094 440.058594 232.132812 440.25 232.324219 440.347656 C 232.402344 440.390625 232.492188 440.417969 232.589844 440.417969 L 248.003906 440.417969 C 248.089844 440.417969 248.183594 440.390625 248.273438 440.347656 C 248.363281 440.304688 248.445312 440.242188 248.496094 440.175781 L 252.28125 435.226562 L 252.28125 440.089844 C 252.28125 440.203125 252.351562 440.289062 252.441406 440.347656 C 252.496094 440.382812 252.546875 440.417969 252.613281 440.417969 L 257.492188 440.417969 C 257.558594 440.417969 257.617188 440.386719 257.671875 440.347656 C 257.75 440.292969 257.8125 440.21875 257.824219 440.125 C 257.992188 438.710938 258.097656 437.328125 258.148438 435.96875 C 258.15625 435.742188 258.175781 435.511719 258.179688 435.285156 C 258.214844 433.710938 258.152344 432.179688 257.980469 430.695312 C 257.945312 430.328125 257.925781 429.945312 257.925781 429.582031 Z M 723.980469 311.359375 C 724.183594 310.246094 724.425781 309.171875 724.730469 308.167969 L 738.441406 309.367188 L 738.441406 316.78125 L 741.027344 317.652344 L 742.386719 315.046875 C 745.867188 314.492188 747.511719 316.304688 747.351562 318.652344 C 748.179688 317.234375 748.769531 315.648438 749.035156 313.933594 C 750.144531 306.640625 744.675781 300.71875 737.382812 299.660156 C 733.089844 299.035156 729.132812 300.214844 726.371094 302.785156 C 725.675781 303.410156 725.066406 304.121094 724.5625 304.902344 C 723.558594 306.378906 723.566406 309.519531 723.960938 311.277344 C 723.964844 311.304688 723.972656 311.332031 723.980469 311.359375 Z M 748.945312 389.257812 L 717.304688 389.257812 L 713.226562 390.804688 L 713.226562 392.847656 L 715.96875 409.988281 L 748.542969 409.988281 C 748.597656 409.988281 748.648438 409.96875 748.699219 409.960938 C 749.128906 409.898438 749.492188 409.597656 749.605469 409.167969 L 750.769531 404.761719 L 750.769531 389.257812 Z M 709.675781 419.464844 L 714.882812 468.222656 C 714.902344 468.421875 714.761719 468.597656 714.566406 468.621094 L 713.027344 468.796875 L 714.609375 479.222656 C 714.660156 479.558594 714.429688 479.875 714.09375 479.925781 L 711.664062 480.292969 L 709.488281 480.625 L 709.4375 480.292969 L 709.246094 479.027344 L 706.921875 480.503906 C 706.566406 480.730469 706.15625 480.863281 705.738281 480.894531 L 684.835938 482.402344 L 684.824219 482.332031 L 684.824219 482.546875 C 684.828125 482.808594 684.617188 483.019531 684.355469 483.019531 L 679.554688 483.019531 L 679.546875 481.425781 L 676.882812 482.792969 C 676.59375 482.941406 676.273438 483.019531 675.949219 483.019531 L 655.449219 483.019531 C 655.1875 483.019531 654.980469 482.808594 654.976562 482.550781 L 654.96875 480.292969 L 654.964844 479.867188 C 654.960938 479.082031 655.378906 478.355469 656.058594 477.960938 L 670.503906 469.578125 L 663.957031 468.460938 C 663.753906 468.425781 663.625 468.230469 663.667969 468.03125 L 675.535156 412.597656 C 675.554688 412.511719 675.59375 412.429688 675.613281 412.34375 L 709.328125 412.34375 L 709.328125 418.671875 C 709.328125 418.984375 709.464844 419.265625 709.675781 419.464844 Z M 694.699219 470.890625 L 694.671875 470.894531 L 689.132812 471.53125 C 688.914062 471.554688 688.726562 471.382812 688.734375 471.164062 L 689 460.914062 L 689 460.867188 L 688.996094 460.878906 L 686.125 471.917969 C 686.078125 472.097656 685.902344 472.210938 685.71875 472.179688 L 684.777344 472.019531 L 684.804688 477.710938 L 694.691406 470.898438 Z M 712.34375 409.1875 L 709.945312 394.257812 L 704.136719 394.257812 L 684.121094 401.855469 C 681.679688 402.785156 679.621094 404.515625 678.292969 406.765625 L 676.882812 409.148438 C 676.875 409.160156 676.871094 409.175781 676.867188 409.1875 Z M 712.34375 409.1875 " fill-opacity="1" fill-rule="nonzero"/><g clip-path="url(#6c0dabf374)"><path fill="#ede1d7" d="M 500.070312 461.441406 L 500.070312 652.714844 C 500.070312 653.8125 499.179688 654.703125 498.082031 654.703125 L 359.695312 654.703125 C 358.597656 654.703125 357.707031 653.8125 357.707031 652.714844 L 357.707031 461.441406 C 357.707031 460.34375 358.597656 459.453125 359.695312 459.453125 L 498.082031 459.453125 C 499.179688 459.453125 500.070312 460.34375 500.070312 461.441406 Z M 771.820312 482.28125 L 771.820312 652.714844 C 771.820312 653.8125 770.929688 654.703125 769.832031 654.703125 L 514.367188 654.703125 C 513.269531 654.703125 512.378906 653.8125 512.378906 652.714844 L 512.378906 482.28125 C 512.378906 481.183594 513.269531 480.292969 514.367188 480.292969 L 514.769531 480.292969 L 529.910156 394.199219 L 529.910156 387.023438 C 529.910156 386.753906 530.128906 386.539062 530.394531 386.539062 L 585.65625 386.554688 C 585.925781 386.554688 586.140625 386.773438 586.140625 387.039062 L 586.140625 394.273438 L 586.128906 394.273438 L 588.640625 409.988281 L 629.410156 409.988281 C 629.8125 409.988281 630.160156 409.71875 630.265625 409.332031 L 630.59375 408.085938 L 631.394531 405.046875 L 644.292969 356.226562 C 644.394531 355.839844 644.746094 355.570312 645.144531 355.570312 L 651.398438 355.570312 C 651.972656 355.570312 652.390625 356.101562 652.257812 356.65625 L 637.105469 419.097656 C 637.007812 419.496094 636.65625 419.773438 636.25 419.773438 L 617.03125 419.773438 L 617.03125 475.082031 C 620.183594 475.785156 622.867188 477.683594 624.597656 480.292969 L 642.097656 480.292969 L 657.511719 392.644531 L 657.511719 386.917969 C 657.511719 386.710938 657.679688 386.539062 657.890625 386.539062 L 712.847656 386.539062 C 713.054688 386.539062 713.226562 386.710938 713.226562 386.917969 L 713.226562 392.847656 L 715.96875 409.988281 L 748.542969 409.988281 C 748.597656 409.988281 748.648438 409.96875 748.699219 409.960938 C 749.128906 409.898438 749.492188 409.597656 749.605469 409.167969 L 750.769531 404.761719 L 763.550781 356.386719 C 763.675781 355.90625 764.113281 355.570312 764.613281 355.570312 L 770.421875 355.570312 C 771.132812 355.570312 771.660156 356.234375 771.488281 356.929688 L 756.445312 418.929688 C 756.324219 419.425781 755.882812 419.773438 755.375 419.773438 L 736.328125 419.773438 L 736.328125 475.082031 C 739.480469 475.785156 742.167969 477.683594 743.894531 480.292969 L 769.832031 480.292969 C 770.929688 480.292969 771.820312 481.183594 771.820312 482.28125 Z M 530.773438 409.1875 L 585.015625 409.1875 L 582.851562 395.710938 L 582.621094 394.273438 L 580.6875 394.273438 L 533.414062 394.257812 Z M 596.445312 480.292969 L 589.65625 438.054688 L 587.03125 421.730469 L 585.523438 412.34375 L 530.214844 412.34375 L 518.203125 480.292969 L 526.457031 480.292969 L 526.457031 481.960938 C 526.457031 482.5 526.890625 482.917969 527.414062 482.917969 L 543.859375 482.917969 C 544.363281 482.917969 544.847656 482.707031 545.195312 482.359375 L 547.265625 480.292969 L 550.355469 480.292969 L 550.355469 482.34375 C 550.355469 482.796875 550.71875 483.160156 551.171875 483.160156 L 556 483.160156 C 556.449219 483.160156 556.816406 482.796875 556.816406 482.34375 C 556.847656 481.832031 556.878906 481.332031 556.910156 480.828125 L 568.589844 480.828125 C 569.078125 480.828125 569.546875 480.625 569.890625 480.292969 L 575.09375 480.292969 C 575.113281 480.726562 575.464844 481.070312 575.902344 481.070312 L 580.730469 481.070312 C 581.167969 481.070312 581.515625 480.726562 581.535156 480.292969 Z M 611.679688 419.773438 L 590.207031 419.773438 L 599.882812 480.292969 L 604.117188 480.292969 C 605.84375 477.683594 608.527344 475.785156 611.679688 475.082031 Z M 658.101562 409.1875 L 712.34375 409.1875 L 709.945312 394.257812 L 660.742188 394.257812 Z M 723.699219 479.835938 L 714.046875 419.773438 L 710.429688 419.773438 C 710.136719 419.773438 709.871094 419.652344 709.675781 419.464844 C 709.464844 419.265625 709.328125 418.984375 709.328125 418.671875 L 709.328125 412.34375 L 657.542969 412.34375 L 645.527344 480.292969 L 654.96875 480.292969 L 654.976562 482.550781 C 654.980469 482.808594 655.1875 483.019531 655.449219 483.019531 L 675.949219 483.019531 C 676.273438 483.019531 676.59375 482.941406 676.882812 482.792969 L 679.546875 481.425781 L 679.554688 483.019531 L 684.355469 483.019531 C 684.617188 483.019531 684.828125 482.808594 684.824219 482.546875 L 684.824219 482.332031 L 684.835938 482.402344 L 705.738281 480.894531 C 706.15625 480.863281 706.566406 480.730469 706.921875 480.503906 L 707.253906 480.292969 L 709.4375 480.292969 L 709.488281 480.625 L 711.664062 480.292969 L 723.414062 480.292969 C 723.515625 480.144531 723.59375 479.980469 723.699219 479.835938 Z M 730.976562 419.773438 L 717.53125 419.773438 L 726.675781 476.953125 C 727.953125 476.066406 729.410156 475.433594 730.976562 475.082031 Z M 339.804688 440.347656 L 305.523438 440.347656 C 305.472656 440.378906 305.421875 440.417969 305.355469 440.417969 L 300.582031 440.417969 C 300.515625 440.417969 300.464844 440.378906 300.410156 440.347656 L 296.046875 440.347656 C 295.949219 440.378906 295.851562 440.417969 295.742188 440.417969 L 280.710938 440.417969 C 280.597656 440.417969 280.492188 440.394531 280.394531 440.347656 L 257.671875 440.347656 C 257.617188 440.386719 257.558594 440.417969 257.492188 440.417969 L 252.613281 440.417969 C 252.546875 440.417969 252.496094 440.382812 252.441406 440.347656 L 248.273438 440.347656 C 248.183594 440.390625 248.089844 440.417969 248.003906 440.417969 L 232.589844 440.417969 C 232.492188 440.417969 232.402344 440.390625 232.324219 440.347656 L 201.417969 440.347656 C 200.316406 440.347656 199.425781 441.238281 199.425781 442.335938 L 199.425781 652.714844 C 199.425781 653.8125 200.316406 654.703125 201.417969 654.703125 L 339.804688 654.703125 C 340.902344 654.703125 341.792969 653.8125 341.792969 652.714844 L 341.792969 442.335938 C 341.792969 441.238281 340.902344 440.347656 339.804688 440.347656 Z M 171.859375 426.453125 L 162.804688 426.453125 L 162.804688 427.902344 C 162.804688 428.148438 162.601562 428.351562 162.351562 428.351562 L 150.261719 428.351562 C 149.09375 428.351562 147.929688 428.203125 146.796875 427.910156 L 142.164062 426.710938 L 142.164062 428.351562 L 136.351562 428.351562 C 136.28125 428.292969 136.238281 428.253906 136.167969 428.191406 C 136.109375 427.617188 136.066406 427.035156 136.023438 426.453125 L 75.394531 426.453125 C 75.339844 427.09375 75.285156 427.730469 75.203125 428.351562 L 68.871094 428.351562 L 68.871094 426.710938 L 62.851562 428.03125 C 61.878906 428.246094 60.886719 428.351562 59.890625 428.351562 L 47.355469 428.351562 C 47.105469 428.351562 46.902344 428.148438 46.902344 427.902344 L 46.902344 426.453125 L 33.472656 426.453125 C 32.375 426.453125 31.484375 427.34375 31.484375 428.445312 L 31.484375 652.714844 C 31.484375 653.8125 32.375 654.703125 33.472656 654.703125 L 171.859375 654.703125 C 172.957031 654.703125 173.847656 653.8125 173.847656 652.714844 L 173.847656 428.445312 C 173.847656 427.34375 172.957031 426.453125 171.859375 426.453125 Z M 463.570312 337.421875 L 463.570312 315.6875 C 464.128906 315.429688 464.664062 315.125 465.140625 314.726562 L 485.320312 297.976562 C 485.378906 297.925781 485.394531 297.847656 485.363281 297.78125 L 484.746094 296.5625 L 496.367188 293.101562 C 497.175781 292.921875 497.875 292.421875 498.304688 291.714844 L 498.921875 290.707031 L 498.921875 300.125 C 498.921875 300.277344 499.046875 300.402344 499.203125 300.402344 L 512.207031 300.402344 C 512.359375 300.402344 512.488281 300.277344 512.488281 300.125 L 512.488281 287.121094 C 512.488281 286.964844 512.359375 286.839844 512.207031 286.839844 L 501.285156 286.839844 L 501.691406 286.175781 C 502.328125 285.09375 502.433594 283.777344 501.972656 282.609375 L 501.070312 280.3125 L 512.207031 280.3125 C 512.359375 280.3125 512.488281 280.1875 512.488281 280.03125 L 512.488281 267.027344 C 512.488281 266.875 512.359375 266.746094 512.207031 266.746094 L 499.203125 266.746094 C 499.046875 266.746094 498.921875 266.875 498.921875 267.027344 L 498.921875 276.378906 C 498.542969 276.296875 498.121094 276.390625 497.722656 276.695312 C 496.054688 277.980469 495.003906 279.777344 494.480469 280.863281 C 494.175781 281.492188 493.664062 281.988281 493.019531 282.265625 L 488.335938 284.273438 L 488.632812 282.636719 C 488.699219 282.265625 488.925781 281.707031 489.167969 281.421875 C 489.464844 281.074219 489.6875 280.703125 489.855469 280.3125 L 490.132812 280.3125 C 490.289062 280.3125 490.414062 280.1875 490.414062 280.03125 L 490.414062 267.027344 C 490.414062 266.875 490.289062 266.746094 490.132812 266.746094 L 477.128906 266.746094 C 476.976562 266.746094 476.847656 266.875 476.847656 267.027344 L 476.847656 280.03125 C 476.847656 280.1875 476.976562 280.3125 477.128906 280.3125 L 484.953125 280.3125 C 484.546875 280.628906 484.15625 280.96875 483.804688 281.351562 L 479.464844 286.113281 L 478.589844 284.386719 C 478.546875 284.300781 478.441406 284.273438 478.363281 284.324219 L 463.570312 293.882812 L 463.570312 217.921875 C 463.570312 217.757812 463.703125 217.625 463.867188 217.625 L 546.007812 217.625 C 546.171875 217.625 546.304688 217.757812 546.304688 217.921875 L 546.304688 337.421875 C 546.304688 337.585938 546.171875 337.71875 546.007812 337.71875 L 463.867188 337.71875 C 463.703125 337.71875 463.570312 337.585938 463.570312 337.421875 Z M 533.710938 287.121094 C 533.710938 286.964844 533.585938 286.839844 533.429688 286.839844 L 520.429688 286.839844 C 520.273438 286.839844 520.148438 286.964844 520.148438 287.121094 L 520.148438 300.125 C 520.148438 300.277344 520.273438 300.402344 520.429688 300.402344 L 533.429688 300.402344 C 533.585938 300.402344 533.710938 300.277344 533.710938 300.125 Z M 533.710938 267.027344 C 533.710938 266.875 533.585938 266.746094 533.429688 266.746094 L 520.429688 266.746094 C 520.273438 266.746094 520.148438 266.875 520.148438 267.027344 L 520.148438 280.03125 C 520.148438 280.1875 520.273438 280.3125 520.429688 280.3125 L 533.429688 280.3125 C 533.585938 280.3125 533.710938 280.1875 533.710938 280.03125 Z M 533.429688 247.152344 L 520.429688 247.152344 C 520.273438 247.152344 520.148438 247.277344 520.148438 247.433594 L 520.148438 260.4375 C 520.148438 260.589844 520.273438 260.714844 520.429688 260.714844 L 533.429688 260.714844 C 533.585938 260.714844 533.710938 260.589844 533.710938 260.4375 L 533.710938 247.433594 C 533.710938 247.277344 533.585938 247.152344 533.429688 247.152344 Z M 490.414062 247.433594 C 490.414062 247.277344 490.289062 247.152344 490.132812 247.152344 L 477.128906 247.152344 C 476.976562 247.152344 476.847656 247.277344 476.847656 247.433594 L 476.847656 260.4375 C 476.847656 260.589844 476.976562 260.714844 477.128906 260.714844 L 490.132812 260.714844 C 490.289062 260.714844 490.414062 260.589844 490.414062 260.4375 Z M 531.695312 236.75 C 531.851562 236.75 531.976562 236.625 531.976562 236.46875 L 531.976562 232.691406 C 531.976562 232.535156 531.851562 232.410156 531.695312 232.410156 L 478.867188 232.410156 C 478.710938 232.410156 478.585938 232.535156 478.585938 232.691406 L 478.585938 236.46875 C 478.585938 236.625 478.710938 236.75 478.867188 236.75 Z M 512.488281 260.4375 L 512.488281 247.433594 C 512.488281 247.277344 512.359375 247.152344 512.207031 247.152344 L 499.203125 247.152344 C 499.046875 247.152344 498.921875 247.277344 498.921875 247.433594 L 498.921875 260.4375 C 498.921875 260.589844 499.046875 260.714844 499.203125 260.714844 L 512.207031 260.714844 C 512.359375 260.714844 512.488281 260.589844 512.488281 260.4375 Z M 498.921875 319.78125 C 498.921875 319.933594 499.046875 320.058594 499.203125 320.058594 L 512.207031 320.058594 C 512.359375 320.058594 512.488281 319.933594 512.488281 319.78125 L 512.488281 306.777344 C 512.488281 306.621094 512.359375 306.496094 512.207031 306.496094 L 499.203125 306.496094 C 499.046875 306.496094 498.921875 306.621094 498.921875 306.777344 Z M 476.847656 319.78125 C 476.847656 319.933594 476.976562 320.058594 477.128906 320.058594 L 490.132812 320.058594 C 490.289062 320.058594 490.414062 319.933594 490.414062 319.78125 L 490.414062 306.777344 C 490.414062 306.621094 490.289062 306.496094 490.132812 306.496094 L 477.128906 306.496094 C 476.976562 306.496094 476.847656 306.621094 476.847656 306.777344 Z M 595.691406 150.101562 L 604.289062 141.507812 L 616.011719 153.230469 C 622.734375 147.996094 630.863281 144.496094 639.726562 143.386719 L 639.726562 126.820312 L 651.882812 126.820312 L 651.882812 143.386719 C 660.746094 144.496094 668.871094 148 675.59375 153.230469 L 687.320312 141.507812 L 695.917969 150.101562 L 684.191406 161.828125 C 689.421875 168.550781 692.921875 176.675781 694.035156 185.539062 L 710.582031 185.539062 L 710.582031 197.695312 L 694.035156 197.695312 C 692.921875 206.558594 689.421875 214.683594 684.191406 221.410156 L 695.917969 233.132812 L 687.320312 241.730469 L 675.597656 230.007812 C 668.871094 235.238281 660.746094 238.738281 651.882812 239.851562 L 651.882812 256.414062 L 639.726562 256.414062 L 639.726562 239.851562 C 630.863281 238.738281 622.734375 235.238281 616.011719 230.007812 L 604.289062 241.730469 L 595.691406 233.136719 L 607.414062 221.414062 C 602.183594 214.6875 598.679688 206.5625 597.570312 197.695312 L 581.007812 197.695312 L 581.007812 185.539062 L 597.570312 185.539062 C 598.679688 176.675781 602.183594 168.550781 607.414062 161.824219 Z M 649.535156 227.898438 C 666.585938 226.195312 680.378906 212.40625 682.082031 195.351562 C 684.386719 172.316406 665.101562 153.03125 642.066406 155.335938 C 625.015625 157.042969 611.222656 170.835938 609.519531 187.886719 C 607.21875 210.917969 626.5 230.203125 649.535156 227.898438 Z M 519.765625 132.898438 L 509.558594 132.898438 L 509.558594 120.742188 L 519.765625 120.742188 C 520.695312 115.296875 522.828125 110.269531 525.902344 105.941406 L 518.683594 98.722656 L 527.28125 90.125 L 534.5 97.34375 C 538.832031 94.265625 543.859375 92.132812 549.304688 91.207031 L 549.304688 81 L 561.460938 81 L 561.460938 91.207031 C 566.90625 92.136719 571.933594 94.269531 576.261719 97.347656 L 583.480469 90.125 L 592.078125 98.722656 L 584.855469 105.941406 C 587.933594 110.273438 590.066406 115.300781 590.992188 120.742188 L 601.191406 120.742188 L 601.191406 132.898438 L 590.992188 132.898438 C 590.066406 138.34375 587.933594 143.371094 584.855469 147.703125 L 592.078125 154.921875 L 583.480469 163.515625 L 576.261719 156.296875 C 571.933594 159.375 566.90625 161.507812 561.460938 162.4375 L 561.460938 172.644531 L 549.304688 172.644531 L 549.304688 162.4375 C 543.859375 161.507812 538.832031 159.375 534.5 156.300781 L 527.28125 163.519531 L 518.683594 154.921875 L 525.902344 147.703125 C 522.828125 143.371094 520.695312 138.34375 519.765625 132.898438 Z M 531.371094 126.820312 C 531.371094 140.0625 542.140625 150.832031 555.378906 150.832031 C 568.621094 150.832031 579.390625 140.0625 579.390625 126.820312 C 579.390625 113.582031 568.621094 102.8125 555.378906 102.8125 C 542.140625 102.8125 531.371094 113.582031 531.371094 126.820312 Z M 709.242188 223.238281 L 717.835938 214.644531 L 724.425781 221.230469 C 726.265625 220.152344 728.261719 219.320312 730.371094 218.765625 L 730.371094 209.449219 L 742.527344 209.449219 L 742.527344 218.765625 C 744.636719 219.324219 746.632812 220.152344 748.472656 221.230469 L 755.0625 214.644531 L 763.660156 223.238281 L 757.070312 229.828125 C 758.148438 231.667969 758.976562 233.664062 759.535156 235.773438 L 768.84375 235.773438 L 768.84375 247.929688 L 759.535156 247.929688 C 758.980469 250.039062 758.148438 252.035156 757.070312 253.875 L 763.660156 260.464844 L 755.0625 269.058594 L 748.476562 262.472656 C 746.632812 263.550781 744.640625 264.382812 742.527344 264.9375 L 742.527344 274.253906 L 730.371094 274.253906 L 730.371094 264.9375 C 728.261719 264.382812 726.265625 263.550781 724.425781 262.472656 L 717.835938 269.058594 L 709.242188 260.464844 L 715.828125 253.875 C 714.75 252.035156 713.917969 250.039062 713.363281 247.929688 L 704.046875 247.929688 L 704.046875 235.773438 L 713.363281 235.773438 C 713.917969 233.660156 714.75 231.667969 715.828125 229.828125 Z M 724.707031 241.851562 C 724.707031 248.328125 729.972656 253.59375 736.449219 253.59375 C 742.921875 253.59375 748.191406 248.328125 748.191406 241.851562 C 748.191406 235.378906 742.921875 230.109375 736.449219 230.109375 C 729.972656 230.109375 724.707031 235.378906 724.707031 241.851562 Z M 644.410156 198.945312 C 644.808594 199.28125 645.300781 199.453125 645.804688 199.453125 C 646.117188 199.453125 646.429688 199.386719 646.722656 199.253906 C 647.488281 198.894531 647.976562 198.128906 647.976562 197.285156 L 647.976562 170.546875 C 647.976562 169.347656 647.003906 168.375 645.804688 168.375 C 644.605469 168.375 643.632812 169.347656 643.632812 170.546875 L 643.632812 192.625 L 631.289062 182.253906 C 630.371094 181.480469 629 181.601562 628.230469 182.519531 C 627.457031 183.4375 627.578125 184.804688 628.496094 185.578125 Z M 269.320312 166.007812 C 271.179688 166.007812 272.683594 164.5 272.683594 162.644531 C 272.683594 160.785156 271.179688 159.28125 269.320312 159.28125 C 267.464844 159.28125 265.957031 160.785156 265.957031 162.644531 C 265.957031 164.5 267.464844 166.007812 269.320312 166.007812 Z M 254.734375 166.007812 C 256.59375 166.007812 258.097656 164.5 258.097656 162.644531 C 258.097656 160.785156 256.59375 159.28125 254.734375 159.28125 C 252.878906 159.28125 251.371094 160.785156 251.371094 162.644531 C 251.371094 164.5 252.878906 166.007812 254.734375 166.007812 Z M 283.910156 166.007812 C 285.765625 166.007812 287.273438 164.5 287.273438 162.644531 C 287.273438 160.785156 285.765625 159.28125 283.910156 159.28125 C 282.050781 159.28125 280.546875 160.785156 280.546875 162.644531 C 280.546875 164.5 282.050781 166.007812 283.910156 166.007812 Z M 144.867188 136.621094 C 146.722656 136.621094 148.230469 135.113281 148.230469 133.257812 C 148.230469 131.398438 146.722656 129.894531 144.867188 129.894531 C 143.007812 129.894531 141.503906 131.398438 141.503906 133.257812 C 141.503906 135.113281 143.007812 136.621094 144.867188 136.621094 Z M 126.921875 136.621094 C 128.78125 136.621094 130.285156 135.113281 130.285156 133.257812 C 130.285156 131.398438 128.78125 129.894531 126.921875 129.894531 C 125.066406 129.894531 123.558594 131.398438 123.558594 133.257812 C 123.558594 135.113281 125.066406 136.621094 126.921875 136.621094 Z M 162.808594 136.621094 C 164.664062 136.621094 166.171875 135.113281 166.171875 133.257812 C 166.171875 131.398438 164.664062 129.894531 162.808594 129.894531 C 160.949219 129.894531 159.445312 131.398438 159.445312 133.257812 C 159.445312 135.113281 160.949219 136.621094 162.808594 136.621094 Z M 180.75 136.621094 C 182.609375 136.621094 184.113281 135.113281 184.113281 133.257812 C 184.113281 131.398438 182.609375 129.894531 180.75 129.894531 C 178.894531 129.894531 177.386719 131.398438 177.386719 133.257812 C 177.386719 135.113281 178.894531 136.621094 180.75 136.621094 Z M 399.207031 447.523438 L 415.671875 447.523438 C 415.765625 447.523438 415.847656 447.449219 415.855469 447.355469 L 424.371094 353.574219 C 424.394531 353.300781 424.609375 353.085938 424.882812 353.058594 L 426.789062 352.871094 C 427.046875 352.84375 427.289062 352.996094 427.382812 353.234375 L 440.890625 388.691406 C 441.839844 391.179688 442.617188 393.730469 443.21875 396.324219 L 455.0625 447.429688 C 455.101562 447.601562 455.253906 447.722656 455.429688 447.71875 L 456.585938 447.707031 L 457.683594 447.695312 L 472.207031 447.542969 L 472.902344 447.535156 L 473.835938 447.527344 C 474.066406 447.523438 474.242188 447.3125 474.195312 447.082031 L 463.847656 394.007812 C 463.351562 391.472656 462.691406 388.972656 461.867188 386.527344 L 443.808594 332.882812 L 400.804688 332.882812 L 399.023438 447.335938 C 399.023438 447.4375 399.105469 447.523438 399.207031 447.523438 Z M 589.917969 370.570312 L 589.847656 372.183594 L 589.777344 373.417969 L 589.742188 374.164062 L 589.34375 382.707031 L 589.292969 383.714844 C 589.273438 384.082031 589.550781 384.394531 589.917969 384.394531 L 599.015625 384.742188 L 599.085938 386.945312 L 629.773438 386.945312 L 630.050781 385.851562 C 631.613281 385.765625 633.039062 384.878906 633.769531 383.472656 L 637.257812 376.59375 C 637.710938 375.691406 637.851562 374.667969 637.640625 373.660156 L 632.273438 348.199219 C 631.683594 345.335938 630.347656 342.660156 628.402344 340.453125 L 624.546875 336.0625 L 623.53125 336.425781 L 610.949219 340.921875 L 609.734375 337.9375 L 607.476562 337.9375 L 600.199219 351.414062 C 598.824219 353.949219 598.148438 356.796875 598.234375 359.664062 L 598.546875 369.875 L 590.558594 369.945312 C 590.210938 369.945312 589.933594 370.222656 589.917969 370.570312 Z M 233.121094 241.671875 L 214.804688 187.585938 C 214.71875 187.332031 214.441406 187.191406 214.1875 187.273438 L 178.0625 198.617188 C 177.796875 198.699219 177.652344 198.988281 177.746094 199.25 L 188.449219 230.226562 L 188.460938 230.253906 L 193.390625 226.621094 C 194.175781 226.042969 195.308594 226.609375 195.269531 227.578125 C 195.222656 228.707031 194.824219 230.082031 193.460938 231.15625 C 193.105469 231.4375 192.804688 231.785156 192.652344 232.214844 L 190.808594 237.046875 L 193.527344 244.90625 L 193.625 245.1875 L 196.566406 253.703125 C 196.65625 253.960938 196.933594 254.097656 197.191406 254.011719 L 232.804688 242.300781 C 233.066406 242.214844 233.207031 241.929688 233.121094 241.671875 Z M 286.574219 300.65625 L 286.453125 295.800781 L 286.703125 293.378906 L 282.851562 291.808594 C 282.792969 291.78125 282.761719 291.734375 282.722656 291.6875 C 282.703125 291.667969 282.675781 291.65625 282.660156 291.628906 C 282.621094 291.554688 282.609375 291.460938 282.628906 291.371094 L 283.320312 288.378906 C 281.625 288.039062 280.398438 287.183594 279.742188 286.59375 C 279.320312 286.210938 278.816406 285.941406 278.261719 285.839844 L 275.566406 285.332031 C 275.121094 285.25 274.671875 285.328125 274.246094 285.480469 C 273.820312 285.632812 273.398438 285.722656 272.992188 285.765625 L 272.347656 300.65625 Z M 281.679688 276.609375 L 285.65625 278.257812 L 286 276.769531 C 286.046875 276.566406 286.25 276.4375 286.453125 276.480469 L 288.414062 276.882812 L 290.503906 256.710938 L 289.496094 255.816406 C 289.347656 255.683594 289.128906 255.675781 288.96875 255.789062 L 278.65625 263.273438 L 274.582031 255.304688 C 274.523438 255.199219 274.425781 255.144531 274.320312 255.109375 L 273.296875 278.769531 L 278.015625 276.660156 C 279.175781 276.140625 280.503906 276.121094 281.679688 276.609375 Z M 750.769531 389.257812 L 751.125 382.785156 L 753.128906 381.136719 C 754.855469 379.714844 755.78125 377.539062 755.617188 375.308594 L 753.523438 347.296875 C 753.351562 345.015625 752.628906 342.808594 751.414062 340.871094 L 745.410156 331.300781 C 745.15625 330.894531 744.675781 330.6875 744.203125 330.777344 L 743.804688 330.851562 L 727.296875 334 L 726.84375 334.085938 C 726.503906 334.148438 726.207031 334.363281 726.039062 334.667969 L 718.132812 349.101562 C 717.589844 350.089844 717.308594 351.195312 717.308594 352.324219 L 717.308594 369.992188 L 704.550781 369.335938 C 704.457031 369.421875 704.40625 369.46875 704.3125 369.554688 L 704.242188 371.527344 L 703.855469 382.105469 L 703.753906 384.984375 C 703.839844 385.078125 703.890625 385.128906 703.976562 385.222656 L 717.308594 385.425781 L 717.308594 389.257812 Z M 750.769531 389.257812 " fill-opacity="1" fill-rule="nonzero"/></g></svg>